<?xml version="1.0" standalone="no"?>
<svg
  width="600"
  height="600"
  viewBox="0 0 600 600"
  xmlns="http://www.w3.org/2000/svg"
>
  <g transform="translate(300,300)">
    <path d="M101.3,-133.7C143.4,-130.5,198.1,-123,223.5,-94.2C248.8,-65.5,244.6,-15.4,226.9,25C209.2,65.4,177.9,96.2,144.3,112.4C110.6,128.5,74.6,130,43.5,131.4C12.5,132.7,-13.6,134,-55.9,143.2C-98.3,152.4,-156.8,169.5,-185.7,152.1C-214.5,134.6,-213.7,82.6,-202,40.4C-190.4,-1.8,-168,-34.1,-156.8,-77.1C-145.7,-120,-145.8,-173.6,-121.6,-185C-97.3,-196.4,-48.7,-165.7,-9.6,-150.9C29.6,-136,59.1,-137,101.3,-133.7Z" fill="#7264c9" />
  </g>
</svg>
    